<svg class="main-svg" xmlns="http://www.w3.org/2000/svg" xmlns:xlink="http://www.w3.org/1999/xlink" width="1855" height="450" style="" viewBox="0 0 1855 450"><rect x="0" y="0" width="1855" height="450" style="fill: rgb(255, 255, 255); fill-opacity: 1;"/><defs id="defs-eeaddc"><g class="clips"><clipPath id="clipeeaddcxyplot" class="plotclip"><rect width="1695" height="270"/></clipPath><clipPath class="axesclip" id="clipeeaddcx"><rect x="80" y="0" width="1695" height="450"/></clipPath><clipPath class="axesclip" id="clipeeaddcy"><rect x="0" y="100" width="1855" height="270"/></clipPath><clipPath class="axesclip" id="clipeeaddcxy"><rect x="80" y="100" width="1695" height="270"/></clipPath></g><g class="gradients"/><g class="patterns"/></defs><g class="bglayer"/><g class="layer-below"><g class="imagelayer"/><g class="shapelayer"/></g><g class="cartesianlayer"><g class="subplot xy"><g class="layer-subplot"><g class="shapelayer"/><g class="imagelayer"/></g><g class="minor-gridlayer"><g class="x"/><g class="y"/></g><g class="gridlayer"><g class="x"><path class="xgrid crisp" transform="translate(168.5,0)" d="M0,100v270" style="stroke: rgb(238, 238, 238); stroke-opacity: 1; stroke-width: 1px;"/><path class="xgrid crisp" transform="translate(472.1,0)" d="M0,100v270" style="stroke: rgb(238, 238, 238); stroke-opacity: 1; stroke-width: 1px;"/><path class="xgrid crisp" transform="translate(775.7,0)" d="M0,100v270" style="stroke: rgb(238, 238, 238); stroke-opacity: 1; stroke-width: 1px;"/><path class="xgrid crisp" transform="translate(1079.3,0)" d="M0,100v270" style="stroke: rgb(238, 238, 238); stroke-opacity: 1; stroke-width: 1px;"/><path class="xgrid crisp" transform="translate(1382.9,0)" d="M0,100v270" style="stroke: rgb(238, 238, 238); stroke-opacity: 1; stroke-width: 1px;"/><path class="xgrid crisp" transform="translate(1686.5,0)" d="M0,100v270" style="stroke: rgb(238, 238, 238); stroke-opacity: 1; stroke-width: 1px;"/></g><g class="y"><path class="ygrid crisp" transform="translate(0,325.99)" d="M80,0h1695" style="stroke: rgb(238, 238, 238); stroke-opacity: 1; stroke-width: 1px;"/><path class="ygrid crisp" transform="translate(0,234.33)" d="M80,0h1695" style="stroke: rgb(238, 238, 238); stroke-opacity: 1; stroke-width: 1px;"/><path class="ygrid crisp" transform="translate(0,188.51)" d="M80,0h1695" style="stroke: rgb(238, 238, 238); stroke-opacity: 1; stroke-width: 1px;"/><path class="ygrid crisp" transform="translate(0,142.68)" d="M80,0h1695" style="stroke: rgb(238, 238, 238); stroke-opacity: 1; stroke-width: 1px;"/></g></g><g class="zerolinelayer"><path class="yzl zl crisp" transform="translate(0,280.15999999999997)" d="M80,0h1695" style="stroke: rgb(68, 68, 68); stroke-opacity: 1; stroke-width: 1px;"/></g><path class="xlines-below"/><path class="ylines-below"/><g class="overlines-below"/><g class="xaxislayer-below"/><g class="yaxislayer-below"/><g class="overaxes-below"/><g class="plot" transform="translate(80,100)" clip-path="url(#clipeeaddcxyplot)"><g class="scatterlayer mlayer"><g class="trace scatter trace1e8974" style="stroke-miterlimit: 2; opacity: 1;"><g class="fills"/><g class="errorbars"/><g class="lines"/><g class="points"><path class="point" transform="translate(88.5,247.09)" style="opacity: 1; stroke-width: 0px; fill: rgb(31, 119, 180); fill-opacity: 1;" d="M3,0A3,3 0 1,1 0,-3A3,3 0 0,1 3,0Z"/><path class="point" transform="translate(88.5,247.23)" style="opacity: 1; stroke-width: 0px; fill: rgb(31, 119, 180); fill-opacity: 1;" d="M3,0A3,3 0 1,1 0,-3A3,3 0 0,1 3,0Z"/><path class="point" transform="translate(88.5,251.43)" style="opacity: 1; stroke-width: 0px; fill: rgb(31, 119, 180); fill-opacity: 1;" d="M3,0A3,3 0 1,1 0,-3A3,3 0 0,1 3,0Z"/><path class="point" transform="translate(88.5,249.52)" style="opacity: 1; stroke-width: 0px; fill: rgb(31, 119, 180); fill-opacity: 1;" d="M3,0A3,3 0 1,1 0,-3A3,3 0 0,1 3,0Z"/><path class="point" transform="translate(88.5,249.3)" style="opacity: 1; stroke-width: 0px; fill: rgb(31, 119, 180); fill-opacity: 1;" d="M3,0A3,3 0 1,1 0,-3A3,3 0 0,1 3,0Z"/><path class="point" transform="translate(88.5,250.9)" style="opacity: 1; stroke-width: 0px; fill: rgb(31, 119, 180); fill-opacity: 1;" d="M3,0A3,3 0 1,1 0,-3A3,3 0 0,1 3,0Z"/><path class="point" transform="translate(88.5,252.73)" style="opacity: 1; stroke-width: 0px; fill: rgb(31, 119, 180); fill-opacity: 1;" d="M3,0A3,3 0 1,1 0,-3A3,3 0 0,1 3,0Z"/><path class="point" transform="translate(88.5,251.97)" style="opacity: 1; stroke-width: 0px; fill: rgb(31, 119, 180); fill-opacity: 1;" d="M3,0A3,3 0 1,1 0,-3A3,3 0 0,1 3,0Z"/><path class="point" transform="translate(88.5,252.26)" style="opacity: 1; stroke-width: 0px; fill: rgb(31, 119, 180); fill-opacity: 1;" d="M3,0A3,3 0 1,1 0,-3A3,3 0 0,1 3,0Z"/><path class="point" transform="translate(88.5,252.75)" style="opacity: 1; stroke-width: 0px; fill: rgb(31, 119, 180); fill-opacity: 1;" d="M3,0A3,3 0 1,1 0,-3A3,3 0 0,1 3,0Z"/><path class="point" transform="translate(392.1,208.6)" style="opacity: 1; stroke-width: 0px; fill: rgb(31, 119, 180); fill-opacity: 1;" d="M3,0A3,3 0 1,1 0,-3A3,3 0 0,1 3,0Z"/><path class="point" transform="translate(392.1,209.4)" style="opacity: 1; stroke-width: 0px; fill: rgb(31, 119, 180); fill-opacity: 1;" d="M3,0A3,3 0 1,1 0,-3A3,3 0 0,1 3,0Z"/><path class="point" transform="translate(392.1,209.71)" style="opacity: 1; stroke-width: 0px; fill: rgb(31, 119, 180); fill-opacity: 1;" d="M3,0A3,3 0 1,1 0,-3A3,3 0 0,1 3,0Z"/><path class="point" transform="translate(392.1,210.13)" style="opacity: 1; stroke-width: 0px; fill: rgb(31, 119, 180); fill-opacity: 1;" d="M3,0A3,3 0 1,1 0,-3A3,3 0 0,1 3,0Z"/><path class="point" transform="translate(392.1,210.32)" style="opacity: 1; stroke-width: 0px; fill: rgb(31, 119, 180); fill-opacity: 1;" d="M3,0A3,3 0 1,1 0,-3A3,3 0 0,1 3,0Z"/><path class="point" transform="translate(392.1,208.99)" style="opacity: 1; stroke-width: 0px; fill: rgb(31, 119, 180); fill-opacity: 1;" d="M3,0A3,3 0 1,1 0,-3A3,3 0 0,1 3,0Z"/><path class="point" transform="translate(392.1,209.38)" style="opacity: 1; stroke-width: 0px; fill: rgb(31, 119, 180); fill-opacity: 1;" d="M3,0A3,3 0 1,1 0,-3A3,3 0 0,1 3,0Z"/><path class="point" transform="translate(392.1,209.97)" style="opacity: 1; stroke-width: 0px; fill: rgb(31, 119, 180); fill-opacity: 1;" d="M3,0A3,3 0 1,1 0,-3A3,3 0 0,1 3,0Z"/><path class="point" transform="translate(392.1,210.3)" style="opacity: 1; stroke-width: 0px; fill: rgb(31, 119, 180); fill-opacity: 1;" d="M3,0A3,3 0 1,1 0,-3A3,3 0 0,1 3,0Z"/><path class="point" transform="translate(392.1,209.56)" style="opacity: 1; stroke-width: 0px; fill: rgb(31, 119, 180); fill-opacity: 1;" d="M3,0A3,3 0 1,1 0,-3A3,3 0 0,1 3,0Z"/><path class="point" transform="translate(695.7,157.84)" style="opacity: 1; stroke-width: 0px; fill: rgb(31, 119, 180); fill-opacity: 1;" d="M3,0A3,3 0 1,1 0,-3A3,3 0 0,1 3,0Z"/><path class="point" transform="translate(695.7,168.42)" style="opacity: 1; stroke-width: 0px; fill: rgb(31, 119, 180); fill-opacity: 1;" d="M3,0A3,3 0 1,1 0,-3A3,3 0 0,1 3,0Z"/><path class="point" transform="translate(695.7,169.91)" style="opacity: 1; stroke-width: 0px; fill: rgb(31, 119, 180); fill-opacity: 1;" d="M3,0A3,3 0 1,1 0,-3A3,3 0 0,1 3,0Z"/><path class="point" transform="translate(695.7,158.75)" style="opacity: 1; stroke-width: 0px; fill: rgb(31, 119, 180); fill-opacity: 1;" d="M3,0A3,3 0 1,1 0,-3A3,3 0 0,1 3,0Z"/><path class="point" transform="translate(695.7,153.17)" style="opacity: 1; stroke-width: 0px; fill: rgb(31, 119, 180); fill-opacity: 1;" d="M3,0A3,3 0 1,1 0,-3A3,3 0 0,1 3,0Z"/><path class="point" transform="translate(695.7,158.37)" style="opacity: 1; stroke-width: 0px; fill: rgb(31, 119, 180); fill-opacity: 1;" d="M3,0A3,3 0 1,1 0,-3A3,3 0 0,1 3,0Z"/><path class="point" transform="translate(695.7,158.82)" style="opacity: 1; stroke-width: 0px; fill: rgb(31, 119, 180); fill-opacity: 1;" d="M3,0A3,3 0 1,1 0,-3A3,3 0 0,1 3,0Z"/><path class="point" transform="translate(695.7,174.9)" style="opacity: 1; stroke-width: 0px; fill: rgb(31, 119, 180); fill-opacity: 1;" d="M3,0A3,3 0 1,1 0,-3A3,3 0 0,1 3,0Z"/><path class="point" transform="translate(695.7,180.53)" style="opacity: 1; stroke-width: 0px; fill: rgb(31, 119, 180); fill-opacity: 1;" d="M3,0A3,3 0 1,1 0,-3A3,3 0 0,1 3,0Z"/><path class="point" transform="translate(695.7,180.47)" style="opacity: 1; stroke-width: 0px; fill: rgb(31, 119, 180); fill-opacity: 1;" d="M3,0A3,3 0 1,1 0,-3A3,3 0 0,1 3,0Z"/><path class="point" transform="translate(999.3,130.51)" style="opacity: 1; stroke-width: 0px; fill: rgb(31, 119, 180); fill-opacity: 1;" d="M3,0A3,3 0 1,1 0,-3A3,3 0 0,1 3,0Z"/><path class="point" transform="translate(999.3,130.67)" style="opacity: 1; stroke-width: 0px; fill: rgb(31, 119, 180); fill-opacity: 1;" d="M3,0A3,3 0 1,1 0,-3A3,3 0 0,1 3,0Z"/><path class="point" transform="translate(999.3,131.54)" style="opacity: 1; stroke-width: 0px; fill: rgb(31, 119, 180); fill-opacity: 1;" d="M3,0A3,3 0 1,1 0,-3A3,3 0 0,1 3,0Z"/><path class="point" transform="translate(999.3,131.17)" style="opacity: 1; stroke-width: 0px; fill: rgb(31, 119, 180); fill-opacity: 1;" d="M3,0A3,3 0 1,1 0,-3A3,3 0 0,1 3,0Z"/><path class="point" transform="translate(999.3,131.95)" style="opacity: 1; stroke-width: 0px; fill: rgb(31, 119, 180); fill-opacity: 1;" d="M3,0A3,3 0 1,1 0,-3A3,3 0 0,1 3,0Z"/><path class="point" transform="translate(999.3,77.85)" style="opacity: 1; stroke-width: 0px; fill: rgb(31, 119, 180); fill-opacity: 1;" d="M3,0A3,3 0 1,1 0,-3A3,3 0 0,1 3,0Z"/><path class="point" transform="translate(999.3,130.14)" style="opacity: 1; stroke-width: 0px; fill: rgb(31, 119, 180); fill-opacity: 1;" d="M3,0A3,3 0 1,1 0,-3A3,3 0 0,1 3,0Z"/><path class="point" transform="translate(999.3,129.33)" style="opacity: 1; stroke-width: 0px; fill: rgb(31, 119, 180); fill-opacity: 1;" d="M3,0A3,3 0 1,1 0,-3A3,3 0 0,1 3,0Z"/><path class="point" transform="translate(999.3,130.05)" style="opacity: 1; stroke-width: 0px; fill: rgb(31, 119, 180); fill-opacity: 1;" d="M3,0A3,3 0 1,1 0,-3A3,3 0 0,1 3,0Z"/><path class="point" transform="translate(999.3,131.48)" style="opacity: 1; stroke-width: 0px; fill: rgb(31, 119, 180); fill-opacity: 1;" d="M3,0A3,3 0 1,1 0,-3A3,3 0 0,1 3,0Z"/><path class="point" transform="translate(1302.9,77.53)" style="opacity: 1; stroke-width: 0px; fill: rgb(31, 119, 180); fill-opacity: 1;" d="M3,0A3,3 0 1,1 0,-3A3,3 0 0,1 3,0Z"/><path class="point" transform="translate(1302.9,70.51)" style="opacity: 1; stroke-width: 0px; fill: rgb(31, 119, 180); fill-opacity: 1;" d="M3,0A3,3 0 1,1 0,-3A3,3 0 0,1 3,0Z"/><path class="point" transform="translate(1302.9,75.53)" style="opacity: 1; stroke-width: 0px; fill: rgb(31, 119, 180); fill-opacity: 1;" d="M3,0A3,3 0 1,1 0,-3A3,3 0 0,1 3,0Z"/><path class="point" transform="translate(1302.9,78.19)" style="opacity: 1; stroke-width: 0px; fill: rgb(31, 119, 180); fill-opacity: 1;" d="M3,0A3,3 0 1,1 0,-3A3,3 0 0,1 3,0Z"/><path class="point" transform="translate(1302.9,68.8)" style="opacity: 1; stroke-width: 0px; fill: rgb(31, 119, 180); fill-opacity: 1;" d="M3,0A3,3 0 1,1 0,-3A3,3 0 0,1 3,0Z"/><path class="point" transform="translate(1302.9,75.64)" style="opacity: 1; stroke-width: 0px; fill: rgb(31, 119, 180); fill-opacity: 1;" d="M3,0A3,3 0 1,1 0,-3A3,3 0 0,1 3,0Z"/><path class="point" transform="translate(1302.9,77.72)" style="opacity: 1; stroke-width: 0px; fill: rgb(31, 119, 180); fill-opacity: 1;" d="M3,0A3,3 0 1,1 0,-3A3,3 0 0,1 3,0Z"/><path class="point" transform="translate(1302.9,65.98)" style="opacity: 1; stroke-width: 0px; fill: rgb(31, 119, 180); fill-opacity: 1;" d="M3,0A3,3 0 1,1 0,-3A3,3 0 0,1 3,0Z"/><path class="point" transform="translate(1302.9,69.01)" style="opacity: 1; stroke-width: 0px; fill: rgb(31, 119, 180); fill-opacity: 1;" d="M3,0A3,3 0 1,1 0,-3A3,3 0 0,1 3,0Z"/><path class="point" transform="translate(1302.9,72.67)" style="opacity: 1; stroke-width: 0px; fill: rgb(31, 119, 180); fill-opacity: 1;" d="M3,0A3,3 0 1,1 0,-3A3,3 0 0,1 3,0Z"/><path class="point" transform="translate(1606.5,17.25)" style="opacity: 1; stroke-width: 0px; fill: rgb(31, 119, 180); fill-opacity: 1;" d="M3,0A3,3 0 1,1 0,-3A3,3 0 0,1 3,0Z"/><path class="point" transform="translate(1606.5,18.77)" style="opacity: 1; stroke-width: 0px; fill: rgb(31, 119, 180); fill-opacity: 1;" d="M3,0A3,3 0 1,1 0,-3A3,3 0 0,1 3,0Z"/><path class="point" transform="translate(1606.5,19.4)" style="opacity: 1; stroke-width: 0px; fill: rgb(31, 119, 180); fill-opacity: 1;" d="M3,0A3,3 0 1,1 0,-3A3,3 0 0,1 3,0Z"/><path class="point" transform="translate(1606.5,19.72)" style="opacity: 1; stroke-width: 0px; fill: rgb(31, 119, 180); fill-opacity: 1;" d="M3,0A3,3 0 1,1 0,-3A3,3 0 0,1 3,0Z"/><path class="point" transform="translate(1606.5,20.44)" style="opacity: 1; stroke-width: 0px; fill: rgb(31, 119, 180); fill-opacity: 1;" d="M3,0A3,3 0 1,1 0,-3A3,3 0 0,1 3,0Z"/><path class="point" transform="translate(1606.5,19.8)" style="opacity: 1; stroke-width: 0px; fill: rgb(31, 119, 180); fill-opacity: 1;" d="M3,0A3,3 0 1,1 0,-3A3,3 0 0,1 3,0Z"/><path class="point" transform="translate(1606.5,19.6)" style="opacity: 1; stroke-width: 0px; fill: rgb(31, 119, 180); fill-opacity: 1;" d="M3,0A3,3 0 1,1 0,-3A3,3 0 0,1 3,0Z"/><path class="point" transform="translate(1606.5,18.82)" style="opacity: 1; stroke-width: 0px; fill: rgb(31, 119, 180); fill-opacity: 1;" d="M3,0A3,3 0 1,1 0,-3A3,3 0 0,1 3,0Z"/><path class="point" transform="translate(1606.5,20.38)" style="opacity: 1; stroke-width: 0px; fill: rgb(31, 119, 180); fill-opacity: 1;" d="M3,0A3,3 0 1,1 0,-3A3,3 0 0,1 3,0Z"/><path class="point" transform="translate(1606.5,19.64)" style="opacity: 1; stroke-width: 0px; fill: rgb(31, 119, 180); fill-opacity: 1;" d="M3,0A3,3 0 1,1 0,-3A3,3 0 0,1 3,0Z"/></g><g class="text"/></g></g></g><g class="overplot"/><path class="xlines-above crisp" style="fill: none;" d="M0,0"/><path class="ylines-above crisp" style="fill: none;" d="M0,0"/><g class="overlines-above"/><g class="xaxislayer-above"><g class="xtick"><text text-anchor="middle" x="0" y="383" style="font-family: TOBESTRIPPEDOpen SansTOBESTRIPPED, verdana, arial, sans-serif; font-size: 12px; fill: rgb(68, 68, 68); fill-opacity: 1; white-space: pre; opacity: 1;" transform="translate(168.5,0)">5</text></g><g class="xtick"><text text-anchor="middle" x="0" y="383" style="font-family: TOBESTRIPPEDOpen SansTOBESTRIPPED, verdana, arial, sans-serif; font-size: 12px; fill: rgb(68, 68, 68); fill-opacity: 1; white-space: pre; opacity: 1;" transform="translate(472.1,0)">6</text></g><g class="xtick"><text text-anchor="middle" x="0" y="383" style="font-family: TOBESTRIPPEDOpen SansTOBESTRIPPED, verdana, arial, sans-serif; font-size: 12px; fill: rgb(68, 68, 68); fill-opacity: 1; white-space: pre; opacity: 1;" transform="translate(775.7,0)">7</text></g><g class="xtick"><text text-anchor="middle" x="0" y="383" style="font-family: TOBESTRIPPEDOpen SansTOBESTRIPPED, verdana, arial, sans-serif; font-size: 12px; fill: rgb(68, 68, 68); fill-opacity: 1; white-space: pre; opacity: 1;" transform="translate(1079.3,0)">8</text></g><g class="xtick"><text text-anchor="middle" x="0" y="383" style="font-family: TOBESTRIPPEDOpen SansTOBESTRIPPED, verdana, arial, sans-serif; font-size: 12px; fill: rgb(68, 68, 68); fill-opacity: 1; white-space: pre; opacity: 1;" transform="translate(1382.9,0)">9</text></g><g class="xtick"><text text-anchor="middle" x="0" y="383" style="font-family: TOBESTRIPPEDOpen SansTOBESTRIPPED, verdana, arial, sans-serif; font-size: 12px; fill: rgb(68, 68, 68); fill-opacity: 1; white-space: pre; opacity: 1;" transform="translate(1686.5,0)">10</text></g></g><g class="yaxislayer-above"><g class="ytick"><text text-anchor="end" x="79" y="4.199999999999999" style="font-family: TOBESTRIPPEDOpen SansTOBESTRIPPED, verdana, arial, sans-serif; font-size: 12px; fill: rgb(68, 68, 68); fill-opacity: 1; white-space: pre; opacity: 1;" transform="translate(0,325.99)">−2</text></g><g class="ytick"><text text-anchor="end" x="79" y="4.199999999999999" style="font-family: TOBESTRIPPEDOpen SansTOBESTRIPPED, verdana, arial, sans-serif; font-size: 12px; fill: rgb(68, 68, 68); fill-opacity: 1; white-space: pre; opacity: 1;" transform="translate(0,280.15999999999997)">0</text></g><g class="ytick"><text text-anchor="end" x="79" y="4.199999999999999" style="font-family: TOBESTRIPPEDOpen SansTOBESTRIPPED, verdana, arial, sans-serif; font-size: 12px; fill: rgb(68, 68, 68); fill-opacity: 1; white-space: pre; opacity: 1;" transform="translate(0,234.33)">2</text></g><g class="ytick"><text text-anchor="end" x="79" y="4.199999999999999" style="font-family: TOBESTRIPPEDOpen SansTOBESTRIPPED, verdana, arial, sans-serif; font-size: 12px; fill: rgb(68, 68, 68); fill-opacity: 1; white-space: pre; opacity: 1;" transform="translate(0,188.51)">4</text></g><g class="ytick"><text text-anchor="end" x="79" y="4.199999999999999" style="font-family: TOBESTRIPPEDOpen SansTOBESTRIPPED, verdana, arial, sans-serif; font-size: 12px; fill: rgb(68, 68, 68); fill-opacity: 1; white-space: pre; opacity: 1;" transform="translate(0,142.68)">6</text></g></g><g class="overaxes-above"/></g></g><g class="polarlayer"/><g class="smithlayer"/><g class="ternarylayer"/><g class="geolayer"/><g class="funnelarealayer"/><g class="pielayer"/><g class="iciclelayer"/><g class="treemaplayer"/><g class="sunburstlayer"/><g class="glimages"/><defs id="topdefs-eeaddc"><g class="clips"/></defs><g class="layer-above"><g class="imagelayer"/><g class="shapelayer"/></g><g class="infolayer"><g class="g-gtitle"><text class="gtitle" style="font-family: TOBESTRIPPEDOpen SansTOBESTRIPPED, verdana, arial, sans-serif; font-size: 17px; fill: rgb(68, 68, 68); opacity: 1; font-weight: normal; white-space: pre;" x="927.5" y="50" text-anchor="middle" dy="0em">Matrix-Dimension vs. natürlicher Logarithmus der Leibniz-Formel-Laufzeit</text></g><g class="g-xtitle"><text class="xtitle" style="font-family: TOBESTRIPPEDOpen SansTOBESTRIPPED, verdana, arial, sans-serif; font-size: 14px; fill: rgb(68, 68, 68); opacity: 1; font-weight: normal; white-space: pre;" x="927.5" y="422" text-anchor="middle">Dimension</text></g><g class="g-ytitle"><text class="ytitle" transform="rotate(-90,42,235)" style="font-family: TOBESTRIPPEDOpen SansTOBESTRIPPED, verdana, arial, sans-serif; font-size: 14px; fill: rgb(68, 68, 68); opacity: 1; font-weight: normal; white-space: pre;" x="42" y="235" text-anchor="middle">ln(⋅) der Laufzeit in ms</text></g></g></svg>